<?xml version="1.0" encoding="iso-8859-1"?>
<!-- Generator: Adobe Illustrator 19.0.0, SVG Export Plug-In . SVG Version: 6.00 Build 0)  -->
<svg version="1.1" id="Layer_1" xmlns="http://www.w3.org/2000/svg" xmlns:xlink="http://www.w3.org/1999/xlink" x="0px" y="0px"
	 viewBox="0 0 512 512" style="enable-background:new 0 0 512 512;" xml:space="preserve">
<g>
	<path style="fill:#AFB9D2;" d="M361.94,123.586c-2.854,0-5.651-1.379-7.353-3.932l-9.806-14.707
		c-6.103-9.164-9.336-19.819-9.345-30.819c-0.025-31.155-25.37-56.473-56.495-56.473H233.06c-31.125,0-56.47,25.319-56.495,56.448
		c-0.009,11.026-3.242,21.681-9.345,30.845l-9.806,14.707c-2.711,4.052-8.185,5.138-12.242,2.449
		c-4.056-2.707-5.151-8.19-2.449-12.242l9.806-14.707c4.163-6.25,6.37-13.535,6.379-21.043C158.944,33.233,192.207,0,233.06,0
		h45.879c40.853,0,74.116,33.233,74.151,74.087c0.009,7.534,2.216,14.819,6.379,21.069l9.806,14.707
		c2.702,4.052,1.608,9.535-2.449,12.242C365.323,123.104,363.62,123.586,361.94,123.586z"/>
	<rect x="247.172" y="97.103" style="fill:#AFB9D2;" width="17.655" height="61.793"/>
	<path style="fill:#AFB9D2;" d="M137.816,99.223c-2.449-4.233-7.828-5.673-12.061-3.233c-4.22,2.44-5.668,7.837-3.233,12.061
		l47.642,82.526l15.293-8.828L137.816,99.223z"/>
</g>
<rect x="150.545" y="161.596" transform="matrix(0.5 0.866 -0.866 0.5 231.9464 -60.902)" style="fill:#959CB3;" width="36.343" height="17.655"/>
<path style="fill:#FFD782;" d="M225.102,126.826l-122.318,70.621c-4.222,2.438-9.621,0.991-12.058-3.231l0,0
	c-14.626-25.333-5.946-57.726,19.386-72.352l45.869-26.483c25.333-14.626,57.726-5.946,72.352,19.386l0,0
	C230.771,118.989,229.324,124.388,225.102,126.826z"/>
<path style="fill:#FFC36E;" d="M143.493,169.62l-3.364-5.828c-12.398-21.474-7.999-47.983,9.045-64.481l-39.062,22.552
	c-25.333,14.626-34.013,47.019-19.386,72.352c2.438,4.222,7.837,5.668,12.058,3.231l43.362-25.035
	C145.102,171.691,144.17,170.792,143.493,169.62z"/>
<path style="fill:#AFB9D2;" d="M374.183,99.223c2.449-4.233,7.828-5.673,12.061-3.233c4.22,2.44,5.668,7.837,3.233,12.061
	l-47.642,82.526l-15.293-8.828L374.183,99.223z"/>
<rect x="325.335" y="161.972" transform="matrix(0.5 -0.866 0.866 0.5 23.6031 382.4814)" style="fill:#959CB3;" width="35.42" height="17.655"/>
<path style="fill:#FFD782;" d="M286.898,126.826l122.318,70.621c4.222,2.438,9.621,0.991,12.059-3.231l0,0
	c14.626-25.333,5.946-57.726-19.387-72.352l-45.869-26.483c-25.333-14.626-57.726-5.946-72.352,19.386l0,0
	C281.229,118.989,282.676,124.388,286.898,126.826z"/>
<path style="fill:#FFC36E;" d="M368.506,169.62l3.364-5.828c12.398-21.474,7.999-47.983-9.045-64.481l39.062,22.552
	c25.333,14.626,34.013,47.019,19.387,72.352c-2.438,4.222-7.837,5.668-12.059,3.231l-43.362-25.035
	C366.898,171.691,367.83,170.792,368.506,169.62z"/>
<path style="fill:#5B5D6E;" d="M202.362,455.656c-1.367-3.303-4.587-5.449-8.156-5.449h-18.892c-3.168,0-6.091,1.698-7.663,4.448
	l-25.224,44.138c-2.194,3.837-1.207,8.707,2.306,11.396c1.59,1.216,3.478,1.811,5.354,1.811c2.276,0,4.534-0.871,6.246-2.586
	l44.12-44.138C202.974,462.75,203.729,458.957,202.362,455.656z"/>
<path style="fill:#464655;" d="M194.207,450.207h-18.892c-3.168,0-6.091,1.698-7.663,4.448l-11.058,19.349
	c7.263,4.639,14.859,8.77,22.761,12.378l21.099-21.107c2.521-2.526,3.276-6.319,1.909-9.621S197.775,450.207,194.207,450.207z"/>
<path style="fill:#5B5D6E;" d="M309.66,455.656c1.366-3.302,4.586-5.449,8.156-5.449h18.892c3.168,0,6.091,1.698,7.663,4.448
	l25.224,44.138c2.194,3.837,1.207,8.707-2.306,11.396c-1.59,1.216-3.478,1.811-5.354,1.811c-2.276,0-4.534-0.871-6.246-2.586
	l-44.12-44.138C309.048,462.75,308.293,458.957,309.66,455.656z"/>
<path style="fill:#464655;" d="M317.815,450.207h18.892c3.168,0,6.091,1.698,7.663,4.448l11.058,19.349
	c-7.263,4.639-14.859,8.77-22.761,12.378l-21.099-21.107c-2.521-2.526-3.276-6.319-1.909-9.621
	C311.027,452.353,314.247,450.207,317.815,450.207z"/>
<path style="fill:#646464;" d="M264.85,105.931h-17.655c-4.875,0-8.828-3.948-8.828-8.828c0-4.879,3.953-8.828,8.828-8.828h17.655
	c4.875,0,8.828,3.948,8.828,8.828C273.677,101.983,269.725,105.931,264.85,105.931z"/>
<circle style="fill:#707487;" cx="256" cy="317.793" r="158.897"/>
<circle style="fill:#FFF0E6;" cx="256" cy="317.793" r="123.586"/>
<circle style="fill:#FFE2C7;" cx="256" cy="317.793" r="61.793"/>
<path style="fill:#707487;" d="M233.931,348.69c-2.259,0-4.518-0.862-6.241-2.586c-3.448-3.448-3.448-9.035,0-12.483l83.862-83.862
	c3.448-3.448,9.035-3.448,12.483,0s3.448,9.035,0,12.483l-83.862,83.862C238.449,347.828,236.19,348.69,233.931,348.69z"/>
<path style="fill:#464655;" d="M317.793,326.621h-88.276c-4.875,0-8.828-3.948-8.828-8.828c0-4.879,3.953-8.828,8.828-8.828h88.276
	c4.875,0,8.828,3.948,8.828,8.828C326.621,322.673,322.668,326.621,317.793,326.621z"/>
<g>
	<path style="fill:#5B5D6E;" d="M256,485.517c-92.483,0-167.724-75.242-167.724-167.724S163.518,150.069,256,150.069
		s167.724,75.242,167.724,167.724S348.483,485.517,256,485.517z M256,167.724c-82.75,0-150.069,67.319-150.069,150.069
		S173.25,467.862,256,467.862s150.069-67.319,150.069-150.069S338.75,167.724,256,167.724z"/>
	<circle style="fill:#5B5D6E;" cx="256" cy="317.793" r="17.655"/>
</g>
<path style="fill:#FFDCB9;" d="M256,450.207c-73.013,0-132.414-59.396-132.414-132.414S182.987,185.379,256,185.379
	s132.414,59.396,132.414,132.414S329.013,450.207,256,450.207z M256,203.034c-63.281,0-114.759,51.482-114.759,114.759
	S192.719,432.552,256,432.552s114.759-51.482,114.759-114.759S319.281,203.034,256,203.034z"/>
<g>
	<path style="fill:#E1BE91;" d="M158.897,308.966h-17.655c-4.875,0-8.828,3.953-8.828,8.828l0,0c0,4.875,3.953,8.828,8.828,8.828
		h17.655c4.875,0,8.828-3.948,8.828-8.828C167.724,312.914,163.772,308.966,158.897,308.966z"/>
	<path style="fill:#E1BE91;" d="M370.759,308.966h-17.655c-4.875,0-8.828,3.953-8.828,8.828l0,0c0,4.875,3.953,8.828,8.828,8.828
		h17.655c4.875,0,8.828-3.948,8.828-8.828C379.586,312.914,375.634,308.966,370.759,308.966z"/>
	<path style="fill:#E1BE91;" d="M264.828,220.69v-17.655c0-4.875-3.953-8.828-8.828-8.828l0,0c-4.875,0-8.828,3.953-8.828,8.828
		v17.655c0,4.875,3.948,8.828,8.828,8.828S264.828,225.565,264.828,220.69z"/>
	<path style="fill:#E1BE91;" d="M264.828,432.552v-17.655c0-4.875-3.953-8.828-8.828-8.828l0,0c-4.875,0-8.828,3.953-8.828,8.828
		v17.655c0,4.875,3.948,8.828,8.828,8.828S264.828,437.427,264.828,432.552z"/>
</g>
<rect x="247.172" y="97.103" style="fill:#959CB3;" width="17.655" height="26.483"/>
<path style="fill:#FFC36E;" d="M264.828,105.931h-17.655c-4.875,0-8.828-3.953-8.828-8.828v-8.828c0-4.875,3.953-8.828,8.828-8.828
	h17.655c4.875,0,8.828,3.953,8.828,8.828v8.828C273.655,101.978,269.703,105.931,264.828,105.931z"/>
<g>
</g>
<g>
</g>
<g>
</g>
<g>
</g>
<g>
</g>
<g>
</g>
<g>
</g>
<g>
</g>
<g>
</g>
<g>
</g>
<g>
</g>
<g>
</g>
<g>
</g>
<g>
</g>
<g>
</g>
</svg>
